<?xml version="1.0" encoding="UTF-8"?>
<svg width="64" height="64" viewBox="0 0 64 64" xmlns="http://www.w3.org/2000/svg" fill="none">
  <title>Weather Icon</title>
  <defs>
    <linearGradient id="g" x1="0" x2="1" y1="0" y2="1">
      <stop offset="0%" stop-color="#FFD54A"/>
      <stop offset="100%" stop-color="#FF8A65"/>
    </linearGradient>
  </defs>
  <g>
    <circle cx="22" cy="22" r="8" fill="url(#g)" />
    <path d="M46 36c0-5.522-4.478-10-10-10-1.092 0-2.136.172-3.114.492C30.96 21.71 26.9 18 22 18c-6.627 0-12 5.373-12 12 0 1.217.18 2.398.52 3.52C6.69 34.91 4 38.138 4 42c0 5.523 4.477 10 10 10h32c4.418 0 8-3.582 8-8s-3.582-8-8-8H46z" fill="#90A4AE"/>
  </g>
</svg>
